<svg id="LinkedIn_5_" xmlns="http://www.w3.org/2000/svg" width="19.834" height="18.011" viewBox="0 0 19.834 18.011">
  <rect id="Rectangle_13" data-name="Rectangle 13" width="3.86" height="12.222" transform="translate(0.536 5.789)" fill="#b3c3cf"/>
  <path id="Path_163" data-name="Path 163" d="M754.3,12.7c-2.2,0-3.591,1.179-3.86,2.037v-1.93H746.1c.054,1.019,0,12.222,0,12.222h4.342V18.382a2.975,2.975,0,0,1,.107-1.019,2.188,2.188,0,0,1,2.091-1.5c1.5,0,2.2,1.126,2.2,2.787v6.325h4.4V18.221C759.18,14.415,757.036,12.7,754.3,12.7Z" transform="translate(-739.399 -7.018)" fill="#b3c3cf"/>
  <path id="Path_164" data-name="Path 164" d="M735.959,2.1A2.146,2.146,0,0,0,733.6,4.244a2.119,2.119,0,0,0,2.305,2.091h.054a2.146,2.146,0,0,0,2.359-2.144A2.166,2.166,0,0,0,735.959,2.1Z" transform="translate(-733.6 -2.1)" fill="#b3c3cf"/>
</svg>
