<svg xmlns="http://www.w3.org/2000/svg" width="179.346" height="39.465" viewBox="0 0 179.346 39.465">
  <g id="office-365" transform="translate(0)">
    <path id="Path_5007" data-name="Path 5007" d="M162.857,32.7a15.04,15.04,0,0,1-1.376,6.623,10.065,10.065,0,0,1-3.961,4.38,11.423,11.423,0,0,1-5.947,1.535,11.171,11.171,0,0,1-5.782-1.493,10.032,10.032,0,0,1-3.918-4.241,13.617,13.617,0,0,1-1.387-6.227,14.779,14.779,0,0,1,1.4-6.6,10.064,10.064,0,0,1,4.025-4.379,11.847,11.847,0,0,1,6.071-1.527,10.77,10.77,0,0,1,5.652,1.5A10.053,10.053,0,0,1,161.5,26.5a13.681,13.681,0,0,1,1.361,6.2m-2.9.363a10.933,10.933,0,0,0-2.161-7.21,7.422,7.422,0,0,0-6.022-2.589,7.9,7.9,0,0,0-4.348,1.229,8.088,8.088,0,0,0-2.979,3.49,11.8,11.8,0,0,0-1.056,5.048,12.026,12.026,0,0,0,1.016,5.058,7.851,7.851,0,0,0,2.894,3.432,8.436,8.436,0,0,0,10.428-1.361,10.493,10.493,0,0,0,2.227-7.1m14.8-10.872a3.592,3.592,0,0,0-1.8-.446q-2.837,0-2.837,3.582v2.605h3.959v2.292h-3.959v14.6h-2.706v-14.6h-2.87V27.935h2.87V25.2a5.755,5.755,0,0,1,1.517-4.158,5.117,5.117,0,0,1,3.862-1.585,5.277,5.277,0,0,1,1.963.3v2.441h0Z" transform="translate(-95.63 -13.243)"/>
    <path id="Path_5008" data-name="Path 5008" d="M88.446,8.951a3.588,3.588,0,0,0-1.8-.446q-2.837,0-2.837,3.582v2.605h3.959v2.292H83.81v14.6H81.1v-14.6h-2.87V14.692H81.1V11.954A5.751,5.751,0,0,1,82.621,7.8a5.115,5.115,0,0,1,3.861-1.585,5.27,5.27,0,0,1,1.963.3V8.951Zm4.989-.314A1.664,1.664,0,0,1,92.907,9.9a1.838,1.838,0,0,1-2.508.017,1.687,1.687,0,0,1-.512-1.278,1.7,1.7,0,0,1,.5-1.229,1.68,1.68,0,0,1,1.262-.52,1.721,1.721,0,0,1,1.27.511,1.682,1.682,0,0,1,.512,1.238m-.462,22.946H90.267V14.69h2.707Zm15.442-.774A8.785,8.785,0,0,1,103.779,32a8.157,8.157,0,0,1-4.149-1.063,7.347,7.347,0,0,1-2.862-3.013,9.237,9.237,0,0,1-1.022-4.37,9.409,9.409,0,0,1,2.4-6.733,8.389,8.389,0,0,1,6.393-2.541,8.555,8.555,0,0,1,3.911.859v2.771a6.933,6.933,0,0,0-4.025-1.319,5.409,5.409,0,0,0-4.264,1.872A7.074,7.074,0,0,0,98.516,23.3a6.681,6.681,0,0,0,1.56,4.669,5.371,5.371,0,0,0,4.181,1.714,6.822,6.822,0,0,0,4.158-1.452V30.81Zm16.624-6.995H113.111a6.3,6.3,0,0,0,1.511,4.364,5.273,5.273,0,0,0,4,1.509,8.29,8.29,0,0,0,5.232-1.847v2.525A9.659,9.659,0,0,1,117.978,32a7.084,7.084,0,0,1-5.644-2.335,9.524,9.524,0,0,1-2.029-6.459,10.254,10.254,0,0,1,1.016-4.577,7.759,7.759,0,0,1,2.8-3.209,7.211,7.211,0,0,1,3.959-1.14,6.4,6.4,0,0,1,5.123,2.138,8.87,8.87,0,0,1,1.84,5.98v1.419Zm-2.771-2.294a5.6,5.6,0,0,0-1.132-3.639,3.829,3.829,0,0,0-3.092-1.3,4.358,4.358,0,0,0-3.217,1.353,6.3,6.3,0,0,0-1.682,3.58Zm23.357,3.365a6.444,6.444,0,0,1-2.293,5.156A8.964,8.964,0,0,1,137.31,32a9.845,9.845,0,0,1-5.379-1.286v-2.9a8.63,8.63,0,0,0,5.477,1.88,6.013,6.013,0,0,0,3.969-1.229,4.094,4.094,0,0,0,1.478-3.324q0-4.634-6.6-4.635h-1.963V18.2h1.863q5.839,0,5.84-4.356,0-4.025-4.455-4.024a7.582,7.582,0,0,0-4.7,1.682V8.884a10.279,10.279,0,0,1,5.378-1.353,6.993,6.993,0,0,1,4.743,1.56,5.134,5.134,0,0,1,1.8,4.082q0,4.67-4.718,6.007v.065a6.546,6.546,0,0,1,4.044,1.815,5.2,5.2,0,0,1,1.534,3.827m17.8-.807a8.6,8.6,0,0,1-.965,4.074,7.006,7.006,0,0,1-2.666,2.838A7.322,7.322,0,0,1,155.984,32a6.458,6.458,0,0,1-5.569-2.854q-2.021-2.853-2.02-7.97a19.868,19.868,0,0,1,1.2-7.167,10.684,10.684,0,0,1,3.388-4.792,8.086,8.086,0,0,1,5.065-1.684,9.578,9.578,0,0,1,3.928.677v2.558a8.338,8.338,0,0,0-3.862-.94,5.791,5.791,0,0,0-5.023,2.814,13.239,13.239,0,0,0-1.89,7.5h.066a5.576,5.576,0,0,1,5.395-3.35,6.365,6.365,0,0,1,4.917,2.005,7.481,7.481,0,0,1,1.847,5.286m-2.771.346a5.876,5.876,0,0,0-1.212-3.911,4.2,4.2,0,0,0-3.391-1.433,4.461,4.461,0,0,0-3.333,1.393,4.66,4.66,0,0,0-1.351,3.372,6.433,6.433,0,0,0,1.344,4.165,4.351,4.351,0,0,0,6.682.215,5.613,5.613,0,0,0,1.261-3.8m18.692-.066a7.167,7.167,0,0,1-2.284,5.545,8.678,8.678,0,0,1-6.1,2.092,9.518,9.518,0,0,1-4.9-.988V28.136A8.985,8.985,0,0,0,171,29.688a5.756,5.756,0,0,0,4.041-1.4,4.84,4.84,0,0,0,1.536-3.759,4.5,4.5,0,0,0-1.55-3.623,6.807,6.807,0,0,0-4.5-1.31,34.606,34.606,0,0,0-4.01.2l.807-11.861h10.939v2.441h-8.6l-.478,6.946,2.178-.084A8.6,8.6,0,0,1,177.2,19.1a6.6,6.6,0,0,1,2.145,5.262M32.92,36.176l0,0V3.389L21.17,0,.053,7.929,0,7.939,0,31.645l7.206-2.82V9.537L21.17,6.2l0,28.358L.014,31.645l21.153,7.811v.009l11.748-3.251v-.037Z"/>
  </g>
</svg>
