<svg xmlns="http://www.w3.org/2000/svg" width="19.661" height="16.354" viewBox="0 0 19.661 16.354">
  <path id="twitter" d="M19.348,36.393a7.785,7.785,0,0,1-1.356.457,4.227,4.227,0,0,0,1.116-1.777h0a.222.222,0,0,0-.324-.258h0a7.822,7.822,0,0,1-2.072.856.528.528,0,0,1-.13.016.549.549,0,0,1-.363-.139,4.239,4.239,0,0,0-2.8-1.058,4.532,4.532,0,0,0-1.343.207A4.106,4.106,0,0,0,9.3,37.657a4.522,4.522,0,0,0-.1,1.561.152.152,0,0,1-.038.119.157.157,0,0,1-.117.053H9.034a11.114,11.114,0,0,1-7.639-4.081h0a.222.222,0,0,0-.363.028h0a4.244,4.244,0,0,0,.69,5.152,3.8,3.8,0,0,1-.967-.374h0a.222.222,0,0,0-.329.191h0A4.244,4.244,0,0,0,2.9,44.215H2.81a3.814,3.814,0,0,1-.714-.068h0a.222.222,0,0,0-.253.285h0A4.248,4.248,0,0,0,5.2,47.323a7.822,7.822,0,0,1-4.381,1.33H.328a.325.325,0,0,0-.317.245.336.336,0,0,0,.161.371,11.634,11.634,0,0,0,5.846,1.576,11.793,11.793,0,0,0,5-1.06,11.032,11.032,0,0,0,3.655-2.739A12.009,12.009,0,0,0,16.906,43.3a11.842,11.842,0,0,0,.761-4.1V39.13a.721.721,0,0,1,.27-.561,8.378,8.378,0,0,0,1.685-1.85h0a.222.222,0,0,0-.274-.326Z" transform="translate(0 -34.491)" fill="#b3c3cf"/>
</svg>
