<svg xmlns="http://www.w3.org/2000/svg" width="27.125" height="19.359" viewBox="0 0 27.125 19.359">
  <g id="youtube" transform="translate(-206.3 -1833.1)">
    <path id="Path_780" data-name="Path 780" d="M217.128,1846.115l7.328-3.828-7.328-3.828Zm2.734-13.016c1.75,0,3.281,0,4.922.109,1.531,0,2.734.109,3.5.109l1.094.109h.547a.4.4,0,0,1,.328.109c.219,0,.328.109.438.109s.219.109.437.219a1.508,1.508,0,0,1,.437.328c.109.109.328.219.438.438a.842.842,0,0,1,.219.328,6.085,6.085,0,0,1,.438.875,6.269,6.269,0,0,1,.437,1.531c.109.656.109,1.312.219,2.078,0,.766.109,1.313.109,1.75v2.625c0,1.422-.109,2.953-.219,4.375-.109.547-.219,1.094-.328,1.531a4.288,4.288,0,0,1-.437.984l-.219.219-.437.438c-.109.109-.328.219-.437.328s-.328.109-.437.219-.219.109-.437.109-.328,0-.328.109H229.6q-3.773.328-9.516.328c-2.078,0-3.937,0-5.469-.109-1.531,0-2.516-.109-3.062-.109l-.766-.109-.547-.109c-.328,0-.656-.109-.875-.109a1.455,1.455,0,0,1-.766-.328,1.7,1.7,0,0,1-.875-.656.843.843,0,0,1-.219-.328l-.437-.875a6.269,6.269,0,0,1-.437-1.531c-.109-.656-.109-1.312-.219-2.078,0-.766-.109-1.312-.109-1.75v-2.625c0-1.422.109-2.953.219-4.375.109-.547.219-1.094.328-1.531.219-.437.328-.766.438-.984l.219-.219.437-.437c.109-.109.328-.219.438-.328s.328-.109.437-.219.219-.109.438-.109.328,0,.328-.109h.547C212.862,1833.209,216.034,1833.1,219.862,1833.1Z" transform="translate(0 0)" fill="#b3c3cf"/>
  </g>
</svg>
